<svg width="63" height="60" viewBox="0 0 63 60" fill="none" xmlns="http://www.w3.org/2000/svg">
<path d="M62.4012 2.83362C67.0464 16.0239 16.6601 56.9509 12.456 58.9476C10.099 60.0672 7.2064 60.7154 6.32974 58.2261C6.03708 57.3951 6.45121 55.795 7.41152 53.6475L7.41087 53.6493L0.720371 47.569C-0.185392 46.7456 -0.246845 45.1867 0.591738 44.2546L1.15384 43.6299C2.1716 42.4964 3.56717 41.931 4.96891 42.0825L13.5541 43.012C15.6492 39.8325 18.084 36.3885 20.6984 32.8954L3.30249 29.1993C1.92587 28.9064 1.2924 27.068 2.11411 25.7528L2.95644 24.4059C4.35821 22.1637 6.49875 20.6816 8.87036 20.3099L34.2453 16.3464C40.2512 9.69953 45.9351 4.40972 49.7617 2.59221C50.7842 2.10657 51.8187 1.65156 52.8349 1.26345L47.1693 8.13407L47.9438 10.8813L56.6526 0.174368C59.4614 -0.343871 61.4815 0.222221 62.4012 2.83362ZM42.5191 38.8558L54.9939 45.9233C55.7541 46.3548 56.6751 46.1544 57.257 45.4345L58.1874 44.28C59.8851 42.1749 60.2272 39.0689 59.0364 36.5747L54.271 26.5943C53.9761 25.9767 53.2559 25.8389 52.7954 26.3121L42.315 37.0432C41.8058 37.5658 41.9116 38.5117 42.5191 38.8558Z" fill="#05BD99"/>
</svg>
