<svg width="179" height="149" viewBox="0 0 179 149" fill="none" xmlns="http://www.w3.org/2000/svg">
<g filter="url(#filter0_d_63_1021)">
<path d="M26.4611 34.6984C26.899 30.0512 31.2214 26.7695 35.8234 27.5508C82.5789 35.4882 110.045 37.9584 150.18 38.3581C154.587 38.402 158.159 41.9755 158.159 46.383L158.159 116.321C158.159 120.513 154.916 124.005 150.73 124.231C108.004 126.543 73.7523 121.205 26.3786 111.457C22.3896 110.636 19.6535 106.937 20.0356 102.883L26.4611 34.6984Z" fill="url(#paint0_linear_63_1021)"/>
</g>
<mask id="mask0_63_1021" style="mask-type:alpha" maskUnits="userSpaceOnUse" x="19" y="1" width="140" height="124">
<path d="M26.6386 8.83245C26.9784 4.10617 31.3428 0.71421 36.0146 1.50671C82.6539 9.41841 110.1 11.8824 150.18 12.2816C154.587 12.3255 158.159 15.8991 158.159 20.3065L158.159 116.321C158.159 120.513 154.916 124.005 150.73 124.231C107.958 126.545 73.6776 121.194 26.2235 111.425C22.3008 110.618 19.5789 107.022 19.8661 103.027L26.6386 8.83245Z" fill="url(#paint1_linear_63_1021)"/>
</mask>
<g mask="url(#mask0_63_1021)">
<path fill-rule="evenodd" clip-rule="evenodd" d="M96.7642 46.3238L101.28 45.6826L96.3316 45.2953C96.1938 45.017 96.0244 44.7354 95.8384 44.4599L99.3431 42.233L95.1312 43.6095C95.0089 43.4846 94.8769 43.3746 94.7363 43.2717C94.5446 43.1234 94.3126 42.9787 94.0561 42.8394L95.1875 38.9924L93.0418 42.3952C92.6415 42.2564 92.2299 42.1484 91.8045 42.0947L89.2676 37.3112L90.7199 42.0822C90.2669 42.1374 89.8352 42.2907 89.4636 42.5542L87.0038 40.9967L86.953 41.4704L88.8653 43.1447C88.5965 43.4912 88.4268 43.8083 88.3244 44.0927L86.6658 44.1463L86.6141 44.6278L88.2019 44.8621C88.2232 45.4073 88.4936 45.7158 88.4936 45.7158L88.4921 45.8035L86.443 46.2224L86.4142 46.4908L88.4573 46.5743C88.4381 47.0513 88.434 47.6098 88.458 47.9077C88.5066 48.4958 88.5534 48.8043 88.8026 48.863C89.0448 48.9129 89.2887 48.7235 89.2887 48.7235L89.2965 49.1715C89.2965 49.1715 88.9866 49.753 88.7486 50.1107C88.5176 50.4772 88.2644 50.977 88.2644 50.977C88.2644 50.977 87.2757 50.3679 86.9474 50.0053C86.6277 49.6356 86.5928 49.6638 86.477 49.1803C86.3612 48.6968 86.5013 48.4324 86.3007 47.9956C86.2883 47.9624 86.268 47.9283 86.2556 47.895L77.5523 129.003L101.257 131.546L102.472 119.7L103.654 118.286L102.148 117.438L102.464 115.02L98.489 113.516C98.4253 113.365 98.3484 113.189 98.2731 112.997C97.4463 110.881 97.1248 108.147 97.1248 108.147C97.1248 108.147 97.5431 108.639 97.5893 106.944C97.6347 105.256 97.452 103.312 97.5027 102.319C97.5533 101.327 97.8783 100.084 97.8783 100.084C97.8783 100.084 98.6854 99.7793 98.5934 98.8512C98.4935 97.9222 98.5395 95.7074 98.5395 95.7074C98.5395 95.7074 98.9671 95.8891 98.9631 94.5871C98.9678 93.2782 99.3622 79.7068 99.3622 79.7068C99.3622 79.7068 100.108 79.9784 100.461 80.3277C100.816 80.6692 102.489 80.8488 103.442 79.4819C104.396 78.115 104.82 76.9868 104.955 76.2507C105.09 75.5146 105.898 74.4595 105.922 73.7116C105.946 72.9636 106.335 71.4244 105.952 70.8244C105.57 70.2244 105.701 69.5199 105.626 68.953C105.551 68.386 105.611 68.2806 105.45 67.9919C105.29 67.6952 105.032 67.1965 105.032 67.1965L106.59 64.3614L105.625 62.1978L104.467 61.826L103.081 64.0967C103.081 64.0967 102.697 63.808 102.494 63.6185C102.291 63.429 101.182 60.5873 100.855 59.6899C100.528 58.7925 100.089 58.0507 99.6747 57.4473C99.2683 56.8448 99.1169 56.6928 98.6749 56.4218C98.2329 56.1508 98.8531 56.0257 98.0737 55.5508C97.2943 55.0759 96.6403 54.3989 96.4377 53.6825C96.2351 52.9661 96.2726 53.1378 96.2726 53.1378C96.2726 53.1378 96.6687 53.3161 96.8232 52.9175C96.9778 52.5188 96.566 51.6682 96.566 51.6682C96.566 51.6682 96.9753 50.6821 96.897 50.1467C96.8187 49.6113 96.43 49.2902 96.43 49.2902L96.3523 48.4514C96.3523 48.4514 96.4825 48.8008 96.7687 48.4402C97.0549 48.0797 97.0372 47.7983 96.9017 46.9773C96.9063 46.7862 96.8493 46.5725 96.7642 46.3238ZM87.0117 40.9976L84.8806 39.6511L86.9609 41.4712L87.0117 40.9976ZM86.6729 44.1551L86.6212 44.6366L84.6483 44.345C84.6883 44.9402 84.9767 45.1548 85.2267 45.2056C85.4768 45.2564 85.5999 45.8205 85.8623 46.3517L86.458 46.232L86.4292 46.5003L85.9285 46.4786C86.2084 46.9957 86.133 47.4746 86.2801 47.8896L77.5769 128.998L67.615 127.929L68.9702 115.299L68.2772 113.795L69.9159 112.885L70.1946 110.288L74.5074 110.351C74.5791 110.279 74.6577 110.216 74.7609 110.147C75.8095 109.453 77.2652 108.835 78.1554 107.757C79.0526 106.687 79.9448 101.944 80.229 100.338C80.5131 98.7316 80.529 98.0626 80.529 98.0626C80.529 98.0626 80.1732 96.691 79.9416 95.5004C79.7101 94.3098 79.4647 93.1736 79.4017 92.2725C79.33 91.3785 79.3458 90.7095 79.2401 89.3887C79.1343 88.0679 79.5375 84.3105 79.5375 84.3105C79.5375 84.3105 79.5525 83.6494 79.446 83.079C79.3395 82.5087 79.3639 81.7607 79.3639 81.7607C79.3639 81.7607 79.2304 81.2194 79.122 80.3694C79.0206 79.5281 79.0329 78.3717 79.1378 76.6503C79.2348 74.928 79.9653 72.8825 79.9653 72.8825C79.9653 72.8825 79.7119 72.4162 79.4256 71.8106C79.1392 71.2049 79.2721 68.9995 80.1188 66.6151C80.9655 64.2307 82.624 62.5403 82.624 62.5403C82.624 62.5403 82.5203 62.2417 82.2022 61.1137C81.8841 59.9857 81.9978 59.8941 81.9334 58.41C81.877 56.9268 81.7256 57.222 81.3115 56.6905C80.8974 56.159 81.2181 55.1794 81.0081 55.2766C80.7893 55.3809 80.7257 55.0067 80.0101 54.9779C79.2867 54.9482 79.6094 54.0246 79.7926 52.615C79.9758 51.2055 80.9397 49.4405 81.209 49.0143C81.4704 48.5872 81.3642 47.8652 81.2192 47.0591C81.0741 46.2531 80.9322 45.3436 80.4667 43.7287C80.0012 42.1137 79.8399 39.0782 79.7839 38.1859C79.7288 37.2857 79.727 35.8883 79.7067 36.0777C79.6872 36.2593 79.3325 36.5885 79.0326 36.5563C78.7326 36.5241 78.4373 35.6301 78.4373 35.6301C78.4373 35.6301 78.3223 35.5858 78.3675 35.0158C78.4127 34.4457 78.1916 34.422 78.0738 34.106C77.9561 33.7899 78.2563 33.6704 78.2563 33.6704C78.2563 33.6704 78.2586 33.3513 78.4459 33.02C78.6331 32.6888 78.5166 31.5425 78.5166 31.5425C78.5166 31.5425 78.2259 31.4235 78.0233 30.9306C77.8207 30.4378 78.2884 30.3203 78.2884 30.3203C78.2884 30.3203 77.9499 30.0524 77.9914 29.6657C78.0329 29.2789 78.2714 29.2885 78.2714 29.2885C78.2714 29.2885 77.958 28.9355 78.0609 28.5712C78.163 28.2149 78.5588 28.3213 78.5588 28.3213L78.6105 27.8397C78.6105 27.8397 78.5401 27.5288 78.4578 27.3283C78.0104 27.0328 77.7452 26.6769 78.0181 26.5146C77.8591 26.4337 77.6914 26.3598 77.5544 26.2972C77.1504 26.1181 77.0061 25.7513 76.8283 25.5485C76.6504 25.3458 76.7189 25.1536 76.8833 25.0355C77.0477 24.9174 77.1735 24.34 77.2956 24.1695C77.309 23.7477 76.7342 23.3746 76.7342 23.3746L77.1965 23.4562L77.1038 23.055L77.6505 23.1695L77.8228 22.8287L78.5845 23.0222L79.0509 22.5453L79.527 22.796C79.5324 22.597 79.4879 22.4165 79.3393 22.0892C78.9856 21.5163 78.6407 20.4892 79.2275 19.8575C79.8134 19.2337 80.062 19.5957 80.5146 19.1732C80.9671 18.7506 81.4606 18.2447 81.8648 18.4956C82.2778 18.7396 81.7008 19.8753 82.1463 19.6676C82.5917 19.4599 82.7809 19.8555 83.263 19.6038C83.7451 19.3521 84.1512 18.6931 84.2625 18.9206C84.3738 19.1481 84.2015 19.4889 84.1084 19.9101C84.0145 20.3392 82.7113 21.1735 82.4228 21.6296C82.1422 22.0865 82.03 22.314 81.8242 22.3718C81.7007 22.4064 81.7119 22.5993 81.7356 22.8254C81.7502 22.9867 81.771 23.1645 81.7541 23.3224L82.8226 23.2614L82.8891 23.6837L83.6193 23.6503L83.4436 24.0227L83.9349 24.1313C83.9349 24.1313 83.5712 24.3957 83.3699 24.7095C83.1685 25.0232 83.4388 25.3317 83.6133 25.7895C83.7869 26.2553 83.2455 26.3889 83.2159 26.6651C83.1863 26.9414 81.5009 27.0959 81.5009 27.0959C81.5009 27.0959 81.7193 27.3669 81.6745 27.5617C81.6226 27.7477 81.2225 27.9044 81.2225 27.9044L80.9943 28.9898C80.9943 28.9898 81.1022 29.0253 81.485 29.6253C81.8677 30.2253 82.1058 31.0573 82.3112 32.0455C82.5078 33.0407 82.4085 33.4453 82.6913 34.9767C82.9741 36.5082 82.7512 36.2048 83.4695 38.3658C84.1798 40.526 84.6849 43.3349 84.658 44.1065C84.6537 44.146 84.6582 44.1784 84.654 44.2179L86.6729 44.1551Z" fill="#EAB204"/>
<path d="M44.3743 43.6724L42.3615 43.4564L33.2609 128.266L35.2738 128.482L44.3743 43.6724Z" fill="#EAB204"/>
<path d="M58.1646 45.1522L56.1517 44.9362L47.0512 129.746L49.0641 129.962L58.1646 45.1522Z" fill="#EAB204"/>
<path d="M56.8433 57.4663L41.0401 55.7706L40.8241 57.7835L56.6273 59.4792L56.8433 57.4663Z" fill="#EAB204"/>
<path d="M53.7449 86.3415L37.9417 84.6458L37.7257 86.6587L53.5289 88.3544L53.7449 86.3415Z" fill="#EAB204"/>
<path d="M116.623 93.7834C120.671 87.1673 122.993 81.0048 124.652 76.0407L125.87 76.4429C124.459 80.6591 122.581 85.7354 119.582 91.2183L118.292 103.24C119.303 102.367 120.275 101.497 121.214 100.632C130.509 92.0715 136.492 83.9305 138.631 77.5408L139.85 77.943C138.794 81.0874 136.856 84.6323 134.077 88.4302L129.022 135.54L127.743 135.403L132.571 90.4164C131.489 91.7934 130.292 93.198 129.005 94.6249L124.753 134.251L123.474 134.114L127.543 96.2006C125.868 97.9692 124.054 99.7627 122.08 101.571C120.812 102.744 119.48 103.919 118.084 105.103L115.067 133.212L113.789 133.075L116.662 106.299C116.162 106.717 115.646 107.133 115.13 107.548L115.324 105.741C115.841 105.317 116.358 104.893 116.858 104.468L117.981 94.001C117.448 94.8779 116.89 95.7682 116.299 96.6629L116.608 93.7817L116.623 93.7834ZM111.902 100.583C112.448 99.8827 112.969 99.1881 113.475 98.4918C114.628 96.9068 115.667 95.3335 116.616 93.7825L116.307 96.6558C115.783 97.446 115.234 98.2494 114.653 99.0494L113.804 106.967C114.319 106.551 114.826 106.142 115.333 105.734L115.139 107.541C114.641 107.943 114.126 108.351 113.612 108.751L111.035 132.771L109.764 132.635L112.209 109.846C111.74 110.203 111.27 110.559 110.793 110.915L110.98 109.171C111.458 108.807 111.929 108.442 112.398 108.086L113.15 101.076C112.668 101.703 112.169 102.328 111.647 102.951L111.902 100.583ZM107.286 105.948C108.979 104.157 110.513 102.358 111.902 100.583L111.647 102.951C111.17 103.53 110.676 104.116 110.158 104.699L109.565 110.233C110.042 109.877 110.511 109.528 110.98 109.171L110.793 110.915C110.324 111.264 109.856 111.613 109.379 111.961L107.19 132.359L105.912 132.222L107.977 112.977C107.458 113.344 106.939 113.72 106.412 114.086L106.594 112.389C107.122 112.015 107.649 111.64 108.16 111.264L108.691 106.322C108.167 106.889 107.618 107.461 107.062 108.032L107.286 105.948ZM102.763 110.373C104.382 108.902 105.889 107.427 107.286 105.948L107.062 108.032C106.534 108.566 105.997 109.099 105.445 109.631L105.031 113.491C105.557 113.124 106.084 112.758 106.594 112.389L106.412 114.086C105.895 114.446 105.377 114.806 104.851 115.172L103.054 131.915L101.775 131.778L103.456 116.117C102.991 116.426 102.526 116.743 102.054 117.052L102.232 115.394C102.705 115.078 103.17 114.761 103.635 114.443L104.007 110.978C103.538 111.407 103.052 111.841 102.567 112.269L102.771 110.374L102.763 110.373ZM69.5056 106.813C73.3456 112.175 78.2542 117.7 84.5647 123.256C91.9103 119.165 97.8793 114.808 102.77 110.382L102.566 112.284C102.098 112.697 101.615 113.108 101.132 113.512L100.83 116.33C101.302 116.021 101.767 115.712 102.231 115.402L102.053 117.06C101.589 117.369 101.125 117.671 100.654 117.972L99.2011 131.51L97.9223 131.372L99.2648 118.861C95.9587 120.949 92.4789 123.019 88.8296 125.031L88.2152 123.911C92.1619 121.732 95.9068 119.498 99.4393 117.235L99.7138 114.677C95.4754 118.087 90.5423 121.422 84.7959 124.598L84.4887 124.038L84.0697 124.52C79.128 120.197 75.0149 115.891 71.5964 111.66L71.3219 114.218C74.2938 117.179 77.4796 120.156 80.874 123.123L80.0202 124.086C76.8809 121.345 73.9186 118.592 71.1317 115.842L69.7891 128.353L68.5103 128.216L69.963 114.679C69.5661 114.285 69.178 113.884 68.789 113.491L68.9669 111.833C69.355 112.234 69.7431 112.635 70.1392 113.037L70.4416 110.219C70.0487 109.713 69.6715 109.21 69.3014 108.715L69.5056 106.813ZM66.0244 101.528C67.0751 103.27 68.2276 105.031 69.5056 106.813L69.3014 108.715C68.9102 108.194 68.5356 107.667 68.1681 107.148L67.7962 110.613C68.1835 111.022 68.5708 111.431 68.966 111.841L68.7881 113.498C68.3921 113.097 68.0048 112.688 67.6167 112.287L65.9361 127.948L64.6574 127.811L66.4539 111.068C66.0164 110.606 65.579 110.144 65.1502 109.675L65.3324 107.978C65.7611 108.447 66.1898 108.916 66.6343 109.387L67.0485 105.527C66.6218 104.89 66.203 104.254 65.7999 103.62L66.0244 101.528ZM62.6527 95.298C63.6318 97.3353 64.7504 99.4116 66.0244 101.528L65.8008 103.612C65.3704 102.935 64.9628 102.269 64.5719 101.596L64.0417 106.538C64.4695 107.015 64.8974 107.492 65.3332 107.97L65.1511 109.667C64.7145 109.197 64.2787 108.719 63.8579 108.251L61.7928 127.495L60.5061 127.357L62.6948 106.96C62.303 106.519 61.9191 106.078 61.5352 105.638L61.7224 103.893C62.1063 104.334 62.4894 104.782 62.8803 105.231L63.4741 99.6978C63.0998 99.0189 62.7405 98.3495 62.3899 97.6731L62.6448 95.2971L62.6527 95.298ZM59.4809 87.6517C60.0792 89.3687 60.7687 91.1275 61.5505 92.9201C61.8972 93.7078 62.2596 94.4972 62.6448 95.2971L62.3907 97.6652C62.0207 96.9468 61.6673 96.2222 61.32 95.5143L60.5679 102.524C60.9501 102.98 61.3332 103.428 61.7233 103.885L61.5361 105.63C61.1451 105.181 60.7621 104.733 60.379 104.284L57.9336 127.073L56.6548 126.936L59.2324 102.916C58.8158 102.408 58.4062 101.909 57.9966 101.41L58.1906 99.6019C58.5914 100.108 59.0072 100.624 59.4238 101.132L60.2734 93.2142C59.8754 92.3091 59.5082 91.4154 59.1647 90.5242L59.473 87.6509L59.4809 87.6517ZM55.4 68.6097C55.9684 73.8048 56.9293 80.3275 59.4818 87.6438L59.1726 90.525C58.7848 89.5253 58.4278 88.5368 58.0927 87.5666L56.9704 98.0258C57.3695 98.5477 57.7844 99.0713 58.1994 99.5949L58.0054 101.403C57.5896 100.887 57.1818 100.372 56.7739 99.8571L53.9008 126.633L52.622 126.495L55.6383 98.3859C54.5325 96.9338 53.4803 95.5034 52.4826 94.0869C50.9444 91.9017 49.5459 89.7555 48.2835 87.6798L44.216 125.585L42.9373 125.448L47.1894 85.8218C46.2345 84.1543 45.3709 82.5286 44.5979 80.9525L39.7706 125.939L38.4997 125.802L43.5523 78.7164C41.6503 74.4162 40.5012 70.5402 40.1364 67.2433L41.4124 67.1087C42.1477 73.7989 46.26 83.0232 53.5337 93.3693C54.2679 94.4142 55.0408 95.4713 55.8365 96.5388L57.1265 84.5166C55.3663 78.5229 54.6079 73.1637 54.124 68.7442L55.4 68.6097Z" fill="#EAB204"/>
<path d="M142.73 54.2264L140.717 54.0104L131.617 138.82L133.629 139.036L142.73 54.2264Z" fill="#EAB204"/>
<path d="M128.94 52.7466L126.927 52.5306L117.826 137.341L119.839 137.557L128.94 52.7466Z" fill="#EAB204"/>
<path d="M141.409 66.5406L125.605 64.8448L125.389 66.8577L141.193 68.5535L141.409 66.5406Z" fill="#EAB204"/>
<path d="M138.31 95.4157L122.507 93.72L122.291 95.7329L138.094 97.4286L138.31 95.4157Z" fill="#EAB204"/>
</g>
<defs>
<filter id="filter0_d_63_1021" x="0" y="11.4355" width="178.159" height="137.331" filterUnits="userSpaceOnUse" color-interpolation-filters="sRGB">
<feFlood flood-opacity="0" result="BackgroundImageFix"/>
<feColorMatrix in="SourceAlpha" type="matrix" values="0 0 0 0 0 0 0 0 0 0 0 0 0 0 0 0 0 0 127 0" result="hardAlpha"/>
<feOffset dy="4"/>
<feGaussianBlur stdDeviation="10"/>
<feColorMatrix type="matrix" values="0 0 0 0 0.128906 0 0 0 0 0 0 0 0 0 0.4125 0 0 0 0.16 0"/>
<feBlend mode="normal" in2="BackgroundImageFix" result="effect1_dropShadow_63_1021"/>
<feBlend mode="normal" in="SourceGraphic" in2="effect1_dropShadow_63_1021" result="shape"/>
</filter>
<linearGradient id="paint0_linear_63_1021" x1="96.7021" y1="32.6192" x2="88.2552" y2="122.253" gradientUnits="userSpaceOnUse">
<stop stop-color="#FFD657"/>
<stop offset="1" stop-color="#FFC100"/>
</linearGradient>
<linearGradient id="paint1_linear_63_1021" x1="96.7021" y1="32.6192" x2="88.2552" y2="122.253" gradientUnits="userSpaceOnUse">
<stop stop-color="#651FFF"/>
<stop offset="1" stop-color="#4505D2"/>
</linearGradient>
</defs>
</svg>
