<svg width="155" height="283" viewBox="0 0 155 283" fill="none" xmlns="http://www.w3.org/2000/svg">
<path d="M88.3304 159.702C88.3304 159.702 76.2259 194.737 72.6809 198.997C69.1358 203.257 21.7462 241.927 17.0072 246.004C13.3887 245.159 10.1192 240.054 10.1192 240.054C10.1192 240.054 34.8977 209.445 40.8857 203.991C46.8737 198.538 53.9271 195.343 57.1231 193.268C60.3008 191.193 68.2541 154.359 68.2541 154.359L88.3304 159.702Z" fill="#E0A394"/>
<path d="M82.8017 187.043C85.9059 180.837 100.049 124.888 100.049 124.888C100.049 124.888 73.5993 115.89 70.091 120.591C66.5643 125.291 59.9334 134.73 61.109 138.586C62.2845 142.46 58.5375 174.704 57.6191 179.294C55.7823 186.639 30.067 210.51 30.067 210.51L46.5982 227.036C46.5982 227.036 72.3135 206.837 75.9871 201.329C79.6607 195.82 82.8017 187.043 82.8017 187.043Z" fill="#029F80"/>
<path d="M89.7999 149.034C89.7999 149.034 103.925 180.084 104.623 185.574C105.321 191.064 108.4 253.073 108.143 259.316C105.057 261.373 98.4696 259.316 98.4696 259.316C98.4696 259.316 97.8268 250.502 95.5675 240.789C93.0143 229.772 88.808 217.506 88.8815 213.191C89.0101 205.093 89.1387 196.738 89.7999 192.992C90.4612 189.247 71.2665 157.792 71.2665 157.792L89.7999 149.034Z" fill="#E0A394"/>
<path d="M108.333 172.959C92.7939 138.971 72.4054 118.222 72.4054 118.222C72.4054 118.222 47.7371 131.333 48.7473 137.117C48.7473 137.117 85.1712 190.33 85.1712 194.002C85.1712 197.675 88.8448 227.054 88.8448 227.054H110.886C110.905 227.054 111.272 179.441 108.333 172.959Z" fill="#00AF8D"/>
<path d="M91.4897 76.4117C91.4897 76.4117 97.4226 96.8303 101.702 105.718C105.982 114.605 130.118 131.498 140.073 136.419C143.729 141.524 142.645 146.279 144.206 147.675C145.749 149.07 155.539 147.675 153.996 139.302C152.453 130.929 142.002 128.413 136.345 124.318C130.706 120.224 115.368 101.182 112.172 99.2173C109.215 92.0194 104.127 61.1712 99.4248 56.0482C95.2919 51.5678 91.4897 76.4117 91.4897 76.4117Z" fill="#E0A394"/>
<path d="M51.0065 50.5763C51.0065 50.5763 28.1199 50.3376 21.2135 57.7191C14.3255 65.1006 18.991 110.896 19.2481 121.491C19.4869 132.085 44.3757 138.475 51.9984 131.59C59.6395 124.686 51.0065 50.5763 51.0065 50.5763Z" fill="#00B793"/>
<path d="M68.7501 48.6299C68.7501 48.6299 40.6653 47.3813 34.512 53.7713C28.3587 60.1796 35.8161 110.767 34.512 120.26C33.1895 129.735 40.4632 137.006 57.068 133.059C73.6727 129.111 68.7501 48.6299 68.7501 48.6299Z" fill="#029F80"/>
<path d="M69.5767 33.4996C69.5767 33.4996 70.7339 51.0537 66.4541 55.1668C76.1524 62.3831 85.4283 53.8998 85.4283 53.8998C85.4283 53.8998 81.2404 45.7654 88.4958 35.9785C86.1998 32.8569 69.5767 33.4996 69.5767 33.4996Z" fill="#E0A394"/>
<path d="M62.0458 53.2204C62.0458 53.2204 66.4541 53.7713 68.6215 50.5579C71.5972 50.9802 85.0242 52.6879 85.0242 52.6879C85.0242 52.6879 87.7978 55.277 90.4979 54.7996C88.4407 59.6471 86.31 83.0588 79.5505 80.3228C72.8095 77.5869 62.0458 53.2204 62.0458 53.2204Z" fill="#E0A394"/>
<path d="M61.0172 13.5767C61.0172 13.5767 57.6558 24.8143 61.6417 28.6336C65.499 25.6957 66.6194 14.5132 66.6194 14.5132L61.0172 13.5767Z" fill="#522D0F"/>
<path d="M63.4601 16.1107C63.4601 16.1107 59.015 31.3512 60.7233 37.1169C62.4315 42.8825 65.9582 46.6468 68.6583 47.418C71.3584 48.2075 82.6364 46.4081 85.9243 37.6494C90.6816 37.1169 92.2061 32.8752 91.949 30.4882C91.6735 28.1195 87.5957 27.6053 86.3284 29.2212C87.8896 21.8213 87.1549 15.2109 87.1549 15.2109L63.4601 16.1107Z" fill="#E0A394"/>
<path d="M64.7458 37.3372L73.1217 37.7596C73.1217 37.7596 70.9359 40.826 68.1623 40.826C65.4071 40.826 64.7458 37.3372 64.7458 37.3372Z" fill="white"/>
<path d="M84.4181 18.7548C84.4181 18.7548 83.5364 23.1066 84.6569 25.2917C85.2814 27.5503 84.4915 31.2594 84.4915 31.2594L86.4386 31.5899C86.4386 31.5899 90.0938 28.1195 90.8836 28.9091C91.6735 29.6986 93.547 34.7298 86.861 37.5025C85.9426 37.6678 85.1161 40.0365 85.2446 43.2131C87.3386 43.7089 96.5961 33.0222 97.3492 25.9895C98.1023 18.9568 99.3513 9.72071 92.5368 9.33511C91.949 4.61606 88.4407 0.906927 79.7158 0.0806345C70.991 -0.745658 65.9398 4.9833 61.6968 7.90287C57.4721 10.8224 55.1577 17.0839 67.3358 18.1122C79.5689 19.1588 84.4181 18.7548 84.4181 18.7548Z" fill="#522D0F"/>
<path d="M64.8193 52.541C64.8193 52.541 71.7992 59.9593 79.6791 59.9593C83.3527 59.9593 88.8631 59.9593 89.3223 54.0284C97.5328 56.4889 103.227 60.8958 103.227 60.8958C103.227 60.8958 108.003 75.0345 102.749 95.0492C97.4961 115.082 101.721 148.097 101.721 148.097C101.721 148.097 61.311 151.77 46.1206 141.285C48.7472 124.208 49.8677 96.0407 48.8758 83.5729C47.8839 71.0867 46.1206 58.4352 46.1206 58.4352C46.1206 58.4352 58.7395 52.2105 64.8193 52.541Z" fill="#FFC100"/>
<path d="M86.0895 53.4959C86.0895 53.4959 92.3347 54.7078 95.6777 59.537C98.6166 63.7786 104.843 76.9809 100.968 107.499C105.192 99.4744 107.084 75.6772 105.835 68.6629C104.586 61.667 100.435 50.9986 86.0895 53.4959Z" fill="#00B793"/>
<path d="M43.5307 61.1528C43.5307 61.1528 28.4322 97.1057 26.779 106.838C25.1443 116.569 35.0447 144.296 40.3347 154.065C40.353 160.345 36.7345 163.595 37.1937 165.633C37.6529 167.653 46.4329 172.17 50.0146 164.458C53.5964 156.727 46.5247 148.63 44.2838 142.038C42.0429 135.446 40.5367 111.043 39.0673 107.59C40.8306 100.007 53.0637 73.6023 55.7271 68.112C57.0312 65.4128 57.8211 59.335 53.5964 57.205C46.4329 53.5693 43.5307 61.1528 43.5307 61.1528Z" fill="#E0A394"/>
<path d="M58.4272 22.3905L68.1623 24.0064C68.1623 24.0064 67.7399 29.3864 63.754 29.7353C59.7865 30.0658 57.0129 28.1011 58.4272 22.3905Z" fill="#191919"/>
<path d="M70.6236 24.4103L80.4689 25.255C80.4689 25.255 80.4689 30.6534 76.5198 31.2961C72.5706 31.9571 69.6501 30.1944 70.6236 24.4103Z" fill="#191919"/>
<path d="M70.991 25.5304L67.5011 24.9245L67.8868 23.9513L70.7522 24.4103L70.991 25.5304Z" fill="#191919"/>
<path d="M88.8632 29.5701L80.175 26.5587L80.4689 25.255L89.6897 29.0559L88.8632 29.5701Z" fill="#191919"/>
<path d="M51.5576 55.5707C51.5576 55.5707 46.6166 54.4506 42.943 59.9593C39.2694 65.4679 37.4326 72.8127 37.4326 72.8127L52.127 80.1575C52.127 80.1575 57.6374 67.3041 57.6374 63.6317C57.6374 59.9593 58.3354 56.6908 51.5576 55.5707Z" fill="#FFC100"/>
<path d="M43.7512 54.4507C43.7512 54.4507 57.0496 52.5777 60.5212 66.7349C64.0111 80.8736 56.2598 101.384 46.1206 113.154C44.9267 121.013 46.4145 123.345 46.4145 123.345C46.4145 123.345 57.4905 113.87 64.9479 89.2835C72.4053 64.6783 63.3499 50.9986 55.1577 50.5763C46.9656 50.1539 43.7512 54.4507 43.7512 54.4507Z" fill="#00B793"/>
<path d="M3.72481 244.948C4.68613 244.234 8.6341 240.676 10.4879 238.986C11.4369 241.266 16.0598 243.551 18.2526 244.409C18.571 245.883 19.596 249.102 21.1489 250.186C23.0901 251.542 26.3004 253.46 27.3422 255.378C28.6055 257.704 29.6377 261.602 27.8353 262.942C24.8311 265.176 17.3592 261.402 14.4475 259.368C12.606 258.082 2.87756 250.71 2.06103 248.985C1.24449 247.259 2.52316 245.842 3.72481 244.948Z" fill="#522D0F"/>
<path d="M95.7909 267.239C96.1789 266.05 97.3975 260.637 97.9582 258.079C100.142 259.45 105.46 258.609 107.846 258.017C109.006 259.081 111.821 261.206 113.798 261.194C116.27 261.178 120.163 260.876 122.207 261.883C124.687 263.103 127.917 265.802 127.19 268.031C125.977 271.747 117.333 273.037 113.625 273.06C111.28 273.075 98.544 272.66 96.8075 271.682C95.071 270.704 95.3058 268.725 95.7909 267.239Z" fill="#522D0F"/>
</svg>
