<svg width="98" height="292" viewBox="0 0 98 292" fill="none" xmlns="http://www.w3.org/2000/svg">
<path d="M85.0255 11.0914C85.8255 13.0914 87.3588 15.9248 88.0255 17.0914C89.8588 17.5914 93.7255 18.2914 94.5255 17.0914C95.5255 15.5914 97.0255 12.5914 96.0255 9.59145C95.5255 8.09146 92.0255 7.09145 90.0255 8.09145C90.0255 6.59145 89.0255 -0.908566 88.0255 0.0914338C87.2254 0.891434 87.6921 7.7581 88.0255 11.0914C86.6921 10.2581 83.4254 7.09145 85.0255 11.0914Z" fill="#FAC1AD"/>
<path d="M26.7063 284.591L24.0255 228.091L45.0255 224.591L37.8765 284.591H26.7063Z" fill="#FAC1AD"/>
<path d="M55.7755 283.591L51.0255 223.591L70.0255 225.591L68.2982 283.591H55.7755Z" fill="#FAC1AD"/>
<path d="M88.0255 59.5914C85.6255 65.1914 75.5255 79.0914 69.0255 88.5914L70.0255 105.091C79.0255 92.9248 97.1255 67.2914 97.5255 62.0914C97.9255 56.8914 97.5255 31.5914 94.5255 17.0914H88.0255C89.0255 29.7581 90.4255 53.9914 88.0255 59.5914Z" fill="#FAC1AD"/>
<path d="M14.5255 142.091L28.0255 103.091L17.5255 96.5914C15.6922 105.425 5.92548 132.091 5.52548 142.091C5.12548 152.091 13.3588 165.258 17.5255 170.591L20.0255 159.091L14.5255 142.091Z" fill="#FAC1AD"/>
<path d="M25.475 139.591C24.8144 131.371 20.4218 99.6267 20.0255 96.5914H74.0255L65.6034 139.591H25.475Z" fill="white"/>
<path d="M1.52544 227.591C-4.47456 223.591 8.02545 171.091 25.0255 139.091H66.0254C83.5255 168.591 92.9255 223.991 90.5255 227.591C87.5255 232.091 76.5255 230.091 63.0255 227.591C49.5255 225.091 9.02544 232.591 1.52544 227.591Z" fill="#FFC100"/>
<path d="M19.0254 74.028C17.19 64.5855 19.5192 46.2128 25.0254 37.5914C31.9999 27.0816 43.2691 26.1316 48.1635 28.458C50.6106 28.3211 56.4227 29.3612 60.0935 34.6161C64.682 41.1847 74.0254 56.5914 74.0254 74.028C74.0254 86.8864 82.1174 103.564 77.5254 108.591C71.9738 114.669 60.0935 108.591 43.5254 108.591C31.6998 108.591 7.0255 121.457 7.02545 103.091C7.02543 95.0914 20.8608 83.4704 19.0254 74.028Z" fill="#522D0F"/>
<path d="M25.5255 288.091C24.4075 286.973 24.5255 280.091 26.5255 279.591C32.0255 283.091 37.0255 281.425 38.5254 280.591L39.5255 270.091C41.6921 269.425 43.5255 272.091 44.0255 274.591C44.4177 276.553 41.5255 285.591 38.5254 288.091C36.3782 289.881 28.5255 291.091 25.5255 288.091Z" fill="#FFC100"/>
<path d="M54.7328 289.695C53.6148 288.577 53.7328 281.695 55.7327 281.195C61.2327 284.695 66.2327 283.029 67.7327 282.195L68.7327 271.695C70.8994 271.029 72.7327 273.695 73.2327 276.195C73.625 278.156 70.7327 287.195 67.7327 289.695C65.5855 291.485 57.7327 292.695 54.7328 289.695Z" fill="#FFC100"/>
</svg>
