<svg width="126" height="279" viewBox="0 0 126 279" fill="none" xmlns="http://www.w3.org/2000/svg">
<path d="M85.3994 162.185C82.8068 154.339 74.5747 129.136 73.632 124.007C72.5209 117.91 68.3628 97.0042 67.5884 92.4018C66.7972 87.7994 65.3831 78.4587 70.3829 75.4018C75.3828 72.3448 77.7901 77.2359 79.2043 79.206C80.147 80.5137 81.5443 86.8993 80.753 94.8303C79.9786 102.761 81.9651 111.185 82.7058 120.763C86.8135 129.153 90.4666 153.439 91.443 160.419L85.3994 162.185Z" fill="#FAC1AD"/>
<path d="M74.2886 72.8543C74.2886 72.8543 65.7534 65.5007 63.5649 61.4757C61.3764 57.4507 65.6524 46.0042 65.6524 46.0042L56.0904 44.0002C56.0904 44.0002 50.6528 54.1221 47.3195 64.9912C51.5114 82.3818 77.1504 85.6256 74.2886 72.8543Z" fill="#FAC1AD"/>
<path d="M72.9755 23.213C72.9755 23.213 74.3054 26.0661 74.5579 28.4947C74.8104 30.9232 78.9686 33.114 80.3827 33.7764C81.5443 35.0331 80.3322 36.6805 78.2615 37.4277C77.1336 39.0241 77.8407 39.9412 78.0932 40.4167C77.5208 41.0451 76.9148 41.3338 76.9148 41.3338L77.605 42.5906C77.605 42.5906 76.8474 43.1001 76.9148 44.5266C76.9821 45.9532 78.0258 50.3518 72.9923 49.8933C67.9587 49.4347 66.511 49.2989 64.4235 51.15C62.3528 53.0012 61.0902 58.198 61.0902 58.198L51.444 54.5126C51.444 54.5126 54.3564 46.5476 53.8514 43.8473C53.3632 41.164 51.0231 40.0771 49.8616 37.5466C48.7 35.0331 50.3666 33.0971 52.0164 33.2669C53.2621 30.6685 53.178 25.7944 54.7604 24.7924C56.3429 23.7904 72.9755 23.213 72.9755 23.213Z" fill="#FAC1AD"/>
<path d="M89.406 154.543C89.406 154.543 102.352 183.261 102.992 188.356C103.631 193.434 106.755 250.723 106.519 256.497C103.691 258.399 97.5194 256.497 97.5194 256.497C97.5194 256.497 96.7627 248.408 94.6921 239.424C92.3521 229.234 88.4969 217.872 88.5643 213.898C88.6821 206.409 88.8 198.665 89.406 195.217C90.0121 191.752 72.4199 162.661 72.4199 162.661L89.406 154.543Z" fill="#FAC1AD"/>
<path d="M66.8269 156.223C66.8269 156.223 67.1014 190.476 65.3512 195.276C63.601 200.076 34.493 248.244 31.6457 253.256C28.2536 253.621 23.8672 250.17 23.8672 250.17C23.8672 250.17 35.8985 215.909 39.4086 209.326C42.9186 202.742 48.0452 197.813 50.1465 195.019C52.269 192.236 47.8334 157.678 47.8334 157.678L66.8269 156.223Z" fill="#FAC1AD"/>
<path d="M45.0194 117.497C45.0194 117.497 21.5121 183.618 18.1115 193.485C14.711 203.352 35.1313 209.143 53.1948 209.788C71.2752 210.434 109.338 210.858 112.52 209.788C115.702 208.718 110.887 177.605 106.392 171.39C101.897 165.174 77.6506 126.108 74.5194 117.497C71.3882 108.887 45.0194 117.497 45.0194 117.497Z" fill="#FFC100"/>
<path d="M45.3667 64.3458C45.3667 64.3458 42.5194 79.4972 42.5194 98.9972C42.5194 105.497 44.0194 119.497 44.0194 119.497C44.0194 119.497 59.0701 126.782 77.5881 123.997C74.2044 114.497 75.721 110.497 77.5881 104.663C81.5779 92.198 88.1434 84.9632 74.2044 72.5146C67.4201 71.19 64.0363 72.4297 61.6458 69.3049C57.8412 64.2779 51.7639 61.4247 45.3667 64.3458Z" fill="white"/>
<path d="M58.3462 73.4148C57.0331 71.3938 54.8446 66.3668 49.7101 69.203C44.5755 72.0222 45.5519 81.4138 46.1075 86.0502C46.6798 90.6865 49.5249 112.883 50.3329 119.031C51.141 125.179 76.9821 155.052 76.9821 155.052C79.5746 155.052 82.6048 153.099 82.6048 153.099C82.6048 153.099 64.2046 125.162 59.8613 115.091C59.592 105.496 57.9927 96.9872 59.1543 89.0901C60.3158 81.193 59.2216 74.7565 58.3462 73.4148Z" fill="#FAC1AD"/>
<path d="M60.4674 42.0811C59.7098 38.7184 60.2485 36.3578 61.5616 34.5406C62.8579 32.7234 63.5986 31.4497 63.5986 30.9232C63.5986 30.9232 73.8845 27.8833 76.275 28.0191C77.4703 23.3488 73.9182 16.5216 68.851 14.11C63.7669 11.6984 52.2689 9.72842 45.3667 17.133C45.3667 17.133 35.468 20.7334 35.468 37.7164C35.468 48.7724 16.8153 66.7404 20.3169 71.6825C28.7342 83.5706 50.6191 78.4757 59.0364 75.0791C64.5918 72.8373 58.8176 71.122 60.7199 61.4927C62.4033 53.0011 56.8647 44.102 54.3396 39.2789C52.7066 36.171 51.5114 33.4877 52.7066 32.5196C53.9019 31.5346 57.858 31.7724 58.161 34.9991C58.464 38.2429 58.161 41.7754 59.2721 43.3548C59.2721 43.3718 60.9892 44.3908 60.4674 42.0811Z" fill="#522D0F"/>
<path d="M49.0872 19.1201C61.7299 17.5237 74.6421 17.2859 86.5105 19.7485C94.5406 21.4128 102.015 24.2999 108.395 28.206C98.6482 25.8114 91.342 30.8214 82.9752 34.1161C74.6084 37.4108 66.5615 41.3678 57.858 43.9323C49.1714 46.4967 39.4578 47.5497 31.5287 44.8494C24.5255 42.4717 19.8118 37.4957 15.3843 32.7235L13.8356 30.2609C12.6571 28.3758 14.1891 25.9473 16.9331 25.3019C27.5894 22.8224 38.2794 20.4787 49.0872 19.1201Z" fill="#FFC100"/>
<path d="M79.0191 24.2489C80.7025 23.3658 75.9888 10.6286 75.5006 9.55862C72.5883 3.18999 65.1474 -1.36146 55.6863 0.37081C39.6766 3.32585 39.5251 16.7594 38.5824 26.4397C38.5824 26.4397 55.0298 36.9183 79.0191 24.2489Z" fill="#FFC100"/>
<path d="M38.9864 22.177C42.5385 23.8244 58.161 29.7854 78.3962 18.1011C79.2547 21.1241 79.7598 23.8583 79.0191 24.2659C55.0298 36.9522 38.5824 26.4567 38.5824 26.4567C38.7171 25.0811 38.8349 23.6375 38.9864 22.177Z" fill="#D99800"/>
<path d="M74.5916 152.216C74.5916 152.216 78.6319 165.548 85.3994 167.552C89.9952 168.91 85.3994 161.353 85.3994 161.353C85.3994 161.353 86.1906 161.998 86.8303 161.998C87.47 161.998 86.5946 160.232 85.7192 158.703C84.8438 157.175 84.2209 155.035 80.4163 149.719C79.2716 148.106 74.5916 152.216 74.5916 152.216Z" fill="#FAC1AD"/>
<path d="M19.5194 253.997C20.3194 253.197 23.5194 249.331 25.0194 247.497C26.2194 249.497 30.8527 250.997 33.0194 251.497C33.5194 252.831 34.9194 255.697 36.5194 256.497C38.5194 257.497 41.7825 258.848 43.0194 260.497C44.5194 262.497 46.0194 265.997 44.5194 267.497C42.0194 269.997 34.5194 267.497 31.5194 265.997C29.622 265.049 19.5194 259.497 18.5194 257.997C17.5194 256.497 18.5194 254.997 19.5194 253.997Z" fill="#FFC100"/>
<path d="M95.7236 264.394C96.0746 263.319 97.1769 258.422 97.6842 256.108C99.6597 257.348 104.47 256.588 106.628 256.052C107.678 257.015 110.224 258.937 112.013 258.925C114.249 258.911 117.77 258.638 119.62 259.549C121.863 260.653 124.785 263.094 124.127 265.111C123.03 268.472 115.211 269.639 111.857 269.66C109.735 269.673 98.214 269.298 96.6432 268.413C95.0724 267.529 95.2848 265.739 95.7236 264.394Z" fill="#FFC100"/>
</svg>
