<svg width="344" height="424" viewBox="0 0 344 424" fill="none" xmlns="http://www.w3.org/2000/svg">
<path d="M68 98.9616C53.6 112.562 14 118.962 0 142.962V346.962C24 355.628 79.8113 383.211 108 396.962C149 416.962 274 444.962 318 396.962C362 348.962 316.474 241.324 330 160.962C347 59.9616 238 -9.03837 181 0.961633C124 10.9616 86 81.9616 68 98.9616Z" fill="url(#paint0_linear_554_0)"/>
<g filter="url(#filter0_d_554_0)">
<path d="M179.124 198.17C182.802 209.751 173.457 225.28 166.998 233.188C164.79 235.892 163.926 239.649 165.286 242.865C167.044 247.021 171.988 249.159 176.353 248.015C193.847 243.431 229.761 235.468 238.404 207.63C244.439 188.192 228.481 176.379 228.055 157.484C227.715 142.368 274.783 97.6205 271.599 82.2788C268.414 66.9371 202.668 21.8915 180.664 48.3694C158.661 74.8473 182.704 129.138 170.453 148.292C160.519 163.822 173.399 180.14 179.124 198.17Z" fill="url(#paint1_linear_554_0)"/>
</g>
<path d="M197.554 70.5929C194.009 70.0272 190.673 72.4622 190.103 76.0319C189.265 81.2833 194.874 87.3805 194.874 87.3805C194.874 87.3805 202.103 83.332 202.941 78.0805C203.511 74.5109 201.098 71.1586 197.554 70.5929ZM195.977 80.4747C194.067 80.17 192.767 78.376 193.072 76.4661C193.376 74.5562 195.17 73.2587 197.079 73.5635C198.989 73.8682 200.289 75.6622 199.985 77.5694C199.681 79.4765 197.886 80.7795 195.977 80.4747ZM196.924 74.539C195.561 74.3215 194.28 75.2527 194.062 76.6157C193.845 77.9787 194.772 79.2624 196.135 79.4799C197.498 79.6974 198.78 78.7663 198.997 77.4033C199.215 76.0402 198.287 74.7565 196.924 74.539Z" fill="#F9BC00"/>
<rect x="187.825" y="90.3062" width="57" height="13" rx="4" transform="rotate(9.0671 187.825 90.3062)" fill="#F9BC00"/>
<rect x="179.788" y="140.669" width="44" height="14" rx="4" transform="rotate(9.0671 179.788 140.669)" fill="#EDB300"/>
<rect x="185.219" y="189.13" width="44" height="14" rx="4" transform="rotate(9.0671 185.219 189.13)" fill="#EDB300"/>
<path d="M189.063 132.016C188.491 131.299 188.614 131.036 187.772 130.902C186.927 130.767 186.365 130.894 186.377 132.191C186.392 133.488 187.112 133.019 186.897 133.979C186.683 134.939 186.866 135.183 186.967 135.437C187.069 135.691 187.373 136.43 187.681 135.506C187.99 134.582 188.369 134.104 188.776 133.696C189.183 133.284 189.635 132.732 189.063 132.016ZM191.771 132.392C191.521 132.504 191.478 132.832 191.638 133.041C191.795 133.249 192.132 133.541 192.317 133.149C192.499 132.757 192.021 132.28 191.771 132.392ZM187.101 129.434C187.219 128.956 188.025 128.567 188.552 128.413C189.08 128.259 189.546 128.247 189.55 127.837C189.553 127.433 189.462 127.115 188.698 126.993C187.932 126.871 188.09 128.018 187.566 127.265C187.042 126.511 187.782 126.802 188.119 126.704C188.457 126.606 188.869 126.047 188.326 125.915C187.783 125.784 187.852 126.098 187.448 125.861C187.045 125.624 186.726 126.35 186.469 126.202C186.298 126.103 185.874 125.634 185.614 125.199C184.87 125.681 184.23 126.342 183.744 127.128C183.658 128.274 184.138 128.958 184.138 128.958C184.138 128.958 184.316 129.742 185.937 130.93C185.937 130.93 186.267 131.003 185.941 130.52C185.616 130.036 185.266 129.442 185.803 129.244C186.337 129.05 186.472 129.092 186.511 129.616C186.55 130.14 186.982 129.912 187.101 129.434ZM189.695 123.009C185.877 122.4 182.253 125.222 181.601 129.313C180.948 133.403 183.514 137.213 187.331 137.822C191.149 138.431 194.773 135.609 195.426 131.519C196.078 127.429 193.513 123.619 189.695 123.009ZM187.439 137.149C183.967 136.595 181.635 133.133 182.229 129.413C182.823 125.693 186.116 123.129 189.588 123.683C193.06 124.237 195.391 127.699 194.797 131.419C194.204 135.138 190.911 137.703 187.439 137.149ZM194.233 130.752C194.236 130.694 194.239 130.636 194.242 130.574C194.247 130.444 194.252 130.313 194.25 130.185C194.247 130.119 194.248 130.054 194.246 129.988C194.241 129.859 194.228 129.733 194.216 129.607C194.209 129.55 194.206 129.491 194.199 129.435C194.177 129.266 194.147 129.095 194.112 128.931C194.097 128.859 194.076 128.79 194.058 128.722C194.032 128.621 194.009 128.524 193.979 128.426C193.955 128.339 193.926 128.255 193.895 128.171C193.868 128.098 193.841 128.021 193.811 127.947C193.774 127.855 193.737 127.763 193.697 127.673C193.676 127.625 193.651 127.576 193.627 127.527C193.457 127.176 193.256 126.843 193.025 126.534C193.012 126.515 192.996 126.495 192.983 126.475C192.899 126.372 192.813 126.269 192.722 126.168C192.717 126.164 192.715 126.156 192.709 126.152C192.321 125.717 191.868 125.341 191.368 125.044C191.164 125.291 190.945 125.615 190.738 125.699C190.435 125.824 190.349 126.5 190.891 126.521C190.891 126.521 190.707 126.664 190.766 127.299C190.826 127.933 191.069 128.11 191.9 127.891C192.256 127.796 192.499 127.914 192.402 128.275C192.2 129.04 191.646 128.917 191.866 130.24C192 131.038 192.581 131.434 192.723 132.061C192.8 132.405 193.252 132.784 193.641 133.053C193.71 132.902 193.773 132.746 193.834 132.587C193.856 132.528 193.876 132.466 193.899 132.404C193.94 132.286 193.976 132.164 194.011 132.042C194.027 131.986 194.043 131.926 194.058 131.87C194.1 131.687 194.139 131.503 194.169 131.318C194.199 131.13 194.22 130.94 194.233 130.752Z" fill="#EDB300"/>
<g clip-path="url(#clip0_554_0)">
<path d="M190.015 178.929L190.482 179.004C190.733 179.044 190.969 178.873 191.009 178.622L191.084 178.154C191.124 177.904 190.953 177.668 190.702 177.628L190.234 177.553C189.984 177.513 189.748 177.684 189.708 177.935L189.633 178.402C189.593 178.653 189.764 178.889 190.015 178.929Z" fill="#EDB300"/>
<path d="M193.11 179.423L193.578 179.498C193.829 179.538 194.065 179.367 194.105 179.116L194.18 178.648C194.22 178.398 194.049 178.162 193.798 178.122L193.33 178.047C193.079 178.007 192.844 178.178 192.804 178.429L192.729 178.896C192.689 179.147 192.86 179.383 193.11 179.423Z" fill="#EDB300"/>
<path d="M196.206 179.917L196.674 179.992C196.925 180.032 197.161 179.861 197.201 179.61L197.275 179.142C197.315 178.892 197.144 178.656 196.894 178.616L196.426 178.541C196.175 178.501 195.939 178.672 195.899 178.923L195.825 179.391C195.785 179.641 195.956 179.877 196.206 179.917Z" fill="#EDB300"/>
<path d="M189.641 181.268L190.109 181.343C190.36 181.383 190.596 181.212 190.636 180.961L190.71 180.493C190.75 180.243 190.579 180.007 190.329 179.967L189.861 179.892C189.61 179.852 189.375 180.023 189.335 180.274L189.26 180.742C189.22 180.993 189.391 181.228 189.641 181.268Z" fill="#EDB300"/>
<path d="M192.737 181.762L193.205 181.837C193.456 181.877 193.692 181.706 193.732 181.455L193.806 180.988C193.846 180.737 193.675 180.501 193.425 180.461L192.957 180.386C192.706 180.346 192.47 180.517 192.43 180.768L192.356 181.236C192.316 181.487 192.486 181.722 192.737 181.762Z" fill="#EDB300"/>
<path d="M195.833 182.256L196.301 182.331C196.552 182.371 196.787 182.2 196.827 181.949L196.902 181.482C196.942 181.231 196.771 180.995 196.52 180.955L196.053 180.88C195.802 180.84 195.566 181.011 195.526 181.262L195.451 181.73C195.412 181.981 195.582 182.216 195.833 182.256Z" fill="#EDB300"/>
<path d="M189.268 183.607L189.736 183.682C189.987 183.722 190.222 183.551 190.262 183.3L190.337 182.832C190.377 182.582 190.206 182.346 189.955 182.306L189.488 182.231C189.237 182.191 189.001 182.362 188.961 182.613L188.887 183.081C188.847 183.332 189.017 183.567 189.268 183.607Z" fill="#EDB300"/>
<path d="M192.364 184.101L192.832 184.176C193.083 184.216 193.318 184.045 193.358 183.794L193.433 183.326C193.473 183.076 193.302 182.84 193.051 182.8L192.583 182.725C192.333 182.685 192.097 182.856 192.057 183.107L191.982 183.575C191.942 183.826 192.113 184.061 192.364 184.101Z" fill="#EDB300"/>
<path fill-rule="evenodd" clip-rule="evenodd" d="M199.047 174.67L189.416 173.133C188.532 172.992 187.698 173.597 187.557 174.481L186.152 183.286C186.011 184.17 186.615 185.004 187.499 185.145L197.13 186.682C198.014 186.823 198.848 186.219 198.989 185.335L200.394 176.529C200.536 175.645 199.931 174.812 199.047 174.67ZM198.535 185.263C198.434 185.896 197.837 186.329 197.203 186.228L187.571 184.691C186.938 184.59 186.505 183.992 186.606 183.359L187.81 175.812L199.739 177.715L198.535 185.263ZM187.883 175.358L199.812 177.261L199.812 177.261L199.94 176.457C200.042 175.823 199.609 175.225 198.975 175.124L189.343 173.587C188.71 173.486 188.112 173.919 188.011 174.553L187.883 175.358Z" fill="#EDB300"/>
</g>
<path d="M134.854 235.816C134.854 235.816 126.319 228.462 124.131 224.437C121.942 220.412 126.218 208.966 126.218 208.966L116.656 206.962C116.656 206.962 111.219 217.084 107.885 227.953C112.077 245.343 137.716 248.587 134.854 235.816Z" fill="#FAC1AD"/>
<path d="M133.541 186.175C133.541 186.175 134.871 189.028 135.124 191.456C135.376 193.885 139.534 196.076 140.948 196.738C142.11 197.995 140.898 199.642 138.827 200.389C137.699 201.986 138.406 202.903 138.659 203.378C138.086 204.007 137.48 204.295 137.48 204.295L138.171 205.552C138.171 205.552 137.413 206.062 137.48 207.488C137.548 208.915 138.592 213.313 133.558 212.855C128.524 212.396 127.077 212.261 124.989 214.112C122.918 215.963 121.656 221.16 121.656 221.16L112.01 217.474C112.01 217.474 114.922 209.509 114.417 206.809C113.929 204.126 111.589 203.039 110.427 200.508C109.266 197.995 110.932 196.059 112.582 196.229C113.828 193.63 113.744 188.756 115.326 187.754C116.909 186.752 133.541 186.175 133.541 186.175Z" fill="#FAC1AD"/>
<path d="M108.585 412.959L106.085 354.959H127.585L119.585 412.959H108.585Z" fill="#FAC1AD"/>
<path d="M148.585 255.959L137.585 260.959L135.085 253.959L146.585 249.959L148.585 255.959Z" fill="#FAC1AD"/>
<path d="M129.537 412.959L127.037 354.959H148.537L140.537 412.959H129.537Z" fill="#FAC1AD"/>
<path d="M120.085 412.459C116.485 413.659 110.585 412.959 108.085 412.459C104.585 414.959 104.585 422.959 106.085 422.959C107.585 422.959 131.585 425.459 131.585 421.459C131.585 413.959 123.585 415.459 120.085 412.459Z" fill="#FFC100"/>
<path d="M141.037 412.459C137.437 413.659 131.537 412.959 129.037 412.459C125.537 414.959 125.537 422.959 127.037 422.959C128.537 422.959 152.537 425.459 152.537 421.459C152.537 413.959 144.537 415.459 141.037 412.459Z" fill="#FFC100"/>
<path d="M78.46 354.452C81.8674 344.846 105.5 284.462 105.5 284.462C105.5 284.462 133.363 276.08 136.5 284.462C145 296.324 167.585 363.459 164.085 368.459C160.897 369.5 131.729 370.952 113.613 370.323C95.5135 369.695 75.0527 364.057 78.46 354.452Z" fill="#FFC100"/>
<path d="M105.932 227.307C105.932 227.307 100.512 243.73 103.508 261.206C106.488 278.698 105.5 284.962 105.5 284.962C105.5 284.962 118.482 288.247 137 285.462C137 279.693 136.585 276.959 138.154 267.625C142.144 255.16 148.709 247.925 134.77 235.476C127.986 234.152 124.602 235.391 122.212 232.267C118.407 227.24 112.33 224.386 105.932 227.307Z" fill="white"/>
<path d="M119.443 235.372C117.815 233.595 114.827 228.998 110.231 232.641C105.631 236.269 108.143 245.371 109.455 249.852C110.784 254.331 117.25 275.754 119.061 281.685C124.094 292.469 150.137 263.275 150.137 263.275C152.694 262.847 148.818 255.384 148.818 255.384C148.818 255.384 139.204 261.554 126.19 270.827C124.342 261.407 122.981 258.68 122.825 250.699C122.668 242.719 120.528 236.551 119.443 235.372Z" fill="#FAC1AD"/>
<path d="M121.033 205.043C120.276 201.68 120.814 199.319 122.127 197.502C123.424 195.685 124.164 194.411 124.164 193.885C124.164 193.885 134.45 190.845 136.841 190.981C138.036 186.31 134.484 179.483 129.417 177.072C124.333 174.66 112.835 172.69 105.932 180.095C105.932 180.095 96.0338 183.695 96.0338 200.678C96.0338 211.734 77.381 229.702 80.8826 234.644C89.2999 246.532 111.185 241.437 119.602 238.041C125.158 235.799 119.383 234.084 121.286 224.454C122.969 215.963 117.431 207.064 114.905 202.241C113.272 199.133 112.077 196.449 113.272 195.481C114.468 194.496 118.424 194.734 118.727 197.961C119.03 201.205 118.727 204.737 119.838 206.316C119.838 206.333 121.555 207.352 121.033 205.043Z" fill="#522D0F"/>
<path d="M109.653 182.082C122.296 180.485 135.208 180.248 147.076 182.71C155.106 184.374 162.581 187.262 168.961 191.168C159.214 188.773 151.908 193.783 143.541 197.078C135.174 200.372 127.127 204.329 118.424 206.894C109.737 209.458 100.023 210.511 92.0944 207.811C85.0912 205.433 80.3775 200.457 75.95 195.685L74.4012 193.223C73.2228 191.337 74.7548 188.909 77.4988 188.264C88.1551 185.784 98.8451 183.44 109.653 182.082Z" fill="#FFC100"/>
<path d="M139.585 187.211C141.268 186.327 136.555 173.59 136.066 172.52C133.154 166.152 125.713 161.6 116.252 163.332C100.242 166.288 100.091 179.721 99.1481 189.401C99.1481 189.401 115.595 199.88 139.585 187.211Z" fill="#FFC100"/>
<path d="M99.5521 185.139C103.104 186.786 118.727 192.747 138.962 181.063C139.82 184.086 140.325 186.82 139.585 187.228C115.595 199.914 99.1481 189.418 99.1481 189.418C99.2827 188.043 99.4006 186.599 99.5521 185.139Z" fill="#D99800"/>
<path d="M151.423 262.024C151.423 262.024 164.015 256.066 165.002 249.078C165.67 244.332 158.871 249.989 158.871 249.989C158.871 249.989 159.393 249.112 159.299 248.479C159.205 247.846 157.586 248.972 156.203 250.063C154.82 251.153 152.795 252.084 148.097 256.629C146.669 257.999 151.423 262.024 151.423 262.024Z" fill="#FAC1AD"/>
<path d="M144.493 251.393C144.493 251.393 154.379 242.313 160.976 243.967C165.455 245.092 157.938 249.11 157.938 249.11C157.938 249.11 158.91 248.962 159.441 249.276C159.972 249.589 158.38 250.626 156.904 251.465C155.429 252.304 153.863 253.774 148.102 256.319C146.361 257.097 144.493 251.393 144.493 251.393Z" fill="#FAC1AD"/>
<path d="M162.52 45.9617H99.2824C96.2526 42.7184 91.8379 34.3744 98.4167 26.9444C105.52 18.9224 116.451 25.6176 121.356 29.5979C121.212 23.8485 123.953 12.0843 136.072 11.0229C148.191 9.96147 153.529 22.964 154.683 29.5979C157.857 25.9124 165.204 21.2222 170.744 25.1141C176.284 29.006 175.505 40.151 162.52 45.9617Z" fill="#5FFFE0"/>
<path fill-rule="evenodd" clip-rule="evenodd" d="M295 202.962C288.373 202.962 283 208.334 283 214.962V235.236C283 241.863 288.373 247.236 295 247.236H298.721L293.331 257.567L310.399 247.236H332C338.627 247.236 344 241.863 344 235.236V214.962C344 208.334 338.627 202.962 332 202.962H295Z" fill="#FFC100"/>
<rect x="293" y="214.123" width="31" height="4" rx="2" fill="#F3B700"/>
<rect x="293" y="229.123" width="43" height="3" rx="1.5" fill="#F3B700"/>
<path fill-rule="evenodd" clip-rule="evenodd" d="M74 66.9617C67.3726 66.9617 62 72.3343 62 78.9617V99.2359C62 105.863 67.3726 111.236 74 111.236H77.7206L72.3307 121.567L89.3987 111.236H111C117.627 111.236 123 105.863 123 99.2359V78.9617C123 72.3343 117.627 66.9617 111 66.9617H74Z" fill="#FFC100"/>
<rect x="72" y="78.1229" width="31" height="4" rx="2" fill="#EBB200"/>
<rect x="72" y="93.1229" width="43" height="3" rx="1.5" fill="#EBB200"/>
<defs>
<filter id="filter0_d_554_0" x="144.634" y="24.2012" width="147.119" height="248.12" filterUnits="userSpaceOnUse" color-interpolation-filters="sRGB">
<feFlood flood-opacity="0" result="BackgroundImageFix"/>
<feColorMatrix in="SourceAlpha" type="matrix" values="0 0 0 0 0 0 0 0 0 0 0 0 0 0 0 0 0 0 127 0" result="hardAlpha"/>
<feOffset dy="4"/>
<feGaussianBlur stdDeviation="10"/>
<feColorMatrix type="matrix" values="0 0 0 0 0.128906 0 0 0 0 0 0 0 0 0 0.4125 0 0 0 0.16 0"/>
<feBlend mode="normal" in2="BackgroundImageFix" result="effect1_dropShadow_554_0"/>
<feBlend mode="normal" in="SourceGraphic" in2="effect1_dropShadow_554_0" result="shape"/>
</filter>
<linearGradient id="paint0_linear_554_0" x1="168.837" y1="0" x2="168.837" y2="434.697" gradientUnits="userSpaceOnUse">
<stop stop-color="#04EBBE"/>
<stop offset="1" stop-color="#01D2A9"/>
</linearGradient>
<linearGradient id="paint1_linear_554_0" x1="227.126" y1="43.92" x2="193.528" y2="254.456" gradientUnits="userSpaceOnUse">
<stop stop-color="#FFD657"/>
<stop offset="1" stop-color="#FFC100"/>
</linearGradient>
<clipPath id="clip0_554_0">
<rect width="13" height="13" fill="white" transform="translate(187.898 172.343) rotate(9.0671)"/>
</clipPath>
</defs>
</svg>
