<svg width="179" height="157" viewBox="0 0 179 157" fill="none" xmlns="http://www.w3.org/2000/svg">
<g filter="url(#filter0_d_63_1022)">
<path d="M151.697 43.0641C151.26 38.4169 146.937 35.1352 142.335 35.9164C95.5796 43.8538 68.1136 46.324 27.9783 46.7238C23.5711 46.7677 20 50.3412 20 54.7486L20 123.838C20 128.03 23.2428 131.521 27.4284 131.754C70.1537 134.141 104.406 129.502 151.779 119.818C155.769 119.003 158.505 115.303 158.123 111.249L151.697 43.0641Z" fill="url(#paint0_linear_63_1022)"/>
</g>
<mask id="mask0_63_1022" style="mask-type:alpha" maskUnits="userSpaceOnUse" x="19" y="1" width="140" height="132">
<path d="M151.478 8.88059C151.161 4.13653 146.788 0.71914 142.1 1.5142C95.4874 9.41996 68.0463 11.8826 27.9783 12.2816C23.5711 12.3255 20 15.8991 20 20.3065L19.9999 123.838C19.9999 128.03 23.2428 131.521 27.4283 131.754C70.2108 134.145 104.497 129.489 151.969 119.779C155.878 118.98 158.596 115.407 158.33 111.426L151.478 8.88059Z" fill="#651FFF"/>
</mask>
<g mask="url(#mask0_63_1022)">
<path d="M92.2828 111.685L93.1864 111.608L93.1936 111.607L95.0009 111.452L95.0081 111.451L95.0153 111.45L96.6274 111.312C96.452 110.796 96.2838 110.278 96.1234 109.768C96.1149 109.754 96.1137 109.74 96.1124 109.725C95.7037 108.442 95.3239 107.157 94.9524 105.798C94.9517 105.79 94.9433 105.777 94.9426 105.769L94.942 105.762C94.5984 104.474 94.2642 103.126 93.9418 101.661C93.9405 101.646 93.9399 101.639 93.9314 101.625C93.8692 101.325 93.7998 101.025 93.737 100.717L91.3586 100.921L85.1396 28.4873C85.342 28.47 85.5201 28.593 85.6544 28.8C85.756 28.966 85.8265 29.193 85.8476 29.4388L85.8482 29.446C85.9959 31.1665 86.373 32.3357 86.8527 33.0883C87.4341 34.0069 88.1651 34.2937 88.7868 34.2403C88.9097 34.2297 89.0268 34.3216 89.038 34.4518L89.0386 34.459L89.1292 35.5144L89.1298 35.5216C89.141 35.6518 89.0485 35.7617 88.9183 35.7728L88.181 35.8361L88.3064 37.2964C88.8037 37.4066 89.126 37.5974 89.1514 37.8938L89.1694 38.1034L89.17 38.1107L89.1707 38.1179L89.2346 38.8625C89.3209 39.8673 88.892 40.6396 88.2227 41.1559L88.1928 41.4861C88.2978 42.2854 88.4094 43.0769 88.5132 43.8617C88.5138 43.869 88.5145 43.8762 88.5157 43.8907L88.5163 43.8979L88.7392 45.5609L88.7398 45.5682L88.7405 45.5754L88.7411 45.5826L88.7417 45.5899C88.8455 46.3747 88.9553 47.1445 89.0566 47.9004C89.0572 47.9076 89.0585 47.9221 89.0591 47.9293L89.0597 47.9366C89.1726 48.7425 89.2842 49.5339 89.3953 50.3182C89.3959 50.3254 89.3971 50.3399 89.3977 50.3471C89.5075 51.1169 89.6161 51.8722 89.7168 52.6209C89.7265 52.6492 89.729 52.6781 89.7314 52.707C89.8412 53.4768 89.9504 54.2393 90.0583 54.9874C90.0589 54.9946 90.0602 55.0091 90.0608 55.0163C90.1859 55.8794 90.3097 56.7281 90.4317 57.5551C90.4323 57.5623 90.4329 57.5696 90.4342 57.584C90.5617 58.4761 90.6953 59.353 90.8198 60.2089C90.8204 60.2161 90.8216 60.2306 90.8222 60.2378C90.9258 60.9353 91.0281 61.6183 91.1299 62.2941C91.1305 62.3014 91.1317 62.3158 91.1323 62.323C91.2334 62.9916 91.3333 63.6457 91.4325 64.2926L91.4331 64.2998C91.4338 64.3071 91.435 64.3215 91.4356 64.3287L91.4369 64.3432C91.4472 64.3787 91.4569 64.407 91.4528 64.4438C91.5526 65.0979 91.6591 65.7442 91.7577 66.3838L91.7596 66.4055C91.9066 67.3541 92.0595 68.2877 92.21 69.1923C92.2107 69.1995 92.2119 69.214 92.2125 69.2212C92.3692 70.1982 92.5307 71.1456 92.6902 72.0713L92.6921 72.0929C92.8267 72.897 92.9672 73.686 93.0987 74.4539C93.1603 74.4923 93.202 74.5542 93.2082 74.6265C93.2132 74.6844 93.1964 74.7441 93.1634 74.7833C93.3174 75.644 93.4617 76.4763 93.6113 77.2863L93.6138 77.3153C93.8319 78.4981 94.0462 79.6376 94.2569 80.7337L94.2587 80.7554C94.5066 82.0303 94.7566 83.2468 95.0024 84.4127L95.003 84.4199C95.2982 85.8219 95.6003 87.1359 95.8897 88.3855C95.8903 88.3927 95.8915 88.4071 95.8921 88.4144C96.1308 89.4134 96.3652 90.3618 96.6037 91.2734L98.2808 91.1295L98.288 91.1288C98.4109 91.1183 98.528 91.2102 98.5392 91.3403L98.5398 91.3475L98.5795 91.8102L98.5802 91.8174L97.8313 95.4791C99.839 101.985 101.984 106.097 104.697 110.474L105.904 110.37L105.911 110.369C106.034 110.359 106.151 110.451 106.163 110.581L106.163 110.588L106.385 113.169L106.398 113.321L106.615 115.851L108.359 118.264C108.367 118.271 108.375 118.285 108.384 118.299L108.929 119.053C109.018 119.074 109.083 119.156 109.092 119.25C109.092 119.257 109.093 119.272 109.094 119.279L112.243 123.64C112.251 123.647 112.259 123.661 112.268 123.674L114.672 127C114.68 127.006 114.688 127.013 114.689 127.027L117.343 130.703C117.375 130.737 117.393 130.779 117.397 130.829C117.401 130.88 117.433 131.416 117.458 132.048L117.743 135.373L94.488 137.369L94.0784 132.598L106.715 131.513C106.596 131.152 106.465 130.807 106.32 130.477L106.319 130.47L106.318 130.462C105.22 127.935 103.381 126.105 101.176 124.94L101.169 124.94L101.162 124.941C100.842 124.772 100.507 124.611 100.175 124.472C100.024 124.412 99.8728 124.345 99.7226 124.293L99.7154 124.293L99.7082 124.294L99.7009 124.295C97.6914 123.535 95.4679 123.253 93.2848 123.44L92.2756 111.686L92.2828 111.685ZM87.9454 112.057L89.5575 111.919L89.5647 111.918L91.372 111.763L91.3792 111.763L91.3864 111.762L92.29 111.684L93.2974 123.417L93.2612 123.42C91.0708 123.608 88.913 124.26 87.0485 125.359L87.0412 125.36L87.034 125.36L87.0268 125.361C86.8884 125.446 86.75 125.53 86.6117 125.615C86.3012 125.816 86.0059 126.024 85.7191 126.245L85.7118 126.246L85.7046 126.246C83.7309 127.77 82.2238 129.895 81.5792 132.565L81.5798 132.572L81.5804 132.579C81.4945 132.936 81.4238 133.299 81.368 133.668L94.0765 132.577L94.4861 137.348L71.1439 139.352L70.7548 134.819L70.7541 134.812C70.7498 134.762 70.7605 134.717 70.7864 134.678L72.7748 130.612C72.7808 130.596 72.7874 130.589 72.794 130.581L74.5966 126.894C74.6026 126.879 74.6086 126.864 74.6152 126.856L77.0436 121.892C77.0496 121.877 77.0562 121.869 77.0622 121.854L77.5148 120.934C77.5208 120.919 77.5268 120.904 77.5334 120.896L78.8402 118.221L78.6242 115.705L78.4027 113.124C78.3915 112.994 78.484 112.884 78.6141 112.873L78.6214 112.873L79.8286 112.769C80.0753 112.165 80.3148 111.562 80.5399 110.96L80.5459 110.945L80.5452 110.938C81.9292 107.294 83.0004 103.656 83.7565 98.8067C83.7553 98.7922 83.7619 98.7844 83.7606 98.7699C83.8597 98.1424 83.9496 97.4939 84.0377 96.8236L82.6757 93.3431L82.6751 93.3359L82.6354 92.8733L82.6347 92.866C82.6236 92.7359 82.7161 92.626 82.8462 92.6148L82.8534 92.6142L84.5233 92.4708C84.9066 87.9448 85.1056 82.4588 85.1261 75.4879C85.1248 75.4735 85.1164 75.4596 85.1151 75.4452C85.1126 75.4163 85.1174 75.3867 85.1221 75.3572C85.1351 69.2317 85.0126 61.9528 84.7478 53.1859L84.7472 53.1786C84.746 53.1642 84.7453 53.1569 84.7447 53.1497C84.674 50.8837 84.6018 48.5159 84.5136 46.0475L84.5118 46.0259C84.5105 46.0114 84.5093 45.9969 84.5153 45.9819C84.4661 44.6462 84.4151 43.2888 84.3676 41.8874L84.2831 41.5815C83.5356 41.1869 82.9813 40.499 82.8944 39.4869L82.8305 38.7423L82.8299 38.7351L82.8293 38.7279L82.8113 38.5183C82.7864 38.2291 83.078 37.9783 83.5421 37.7855L83.4167 36.3253L82.6866 36.388L82.6794 36.3886C82.5565 36.3992 82.4394 36.3073 82.4282 36.1771L82.3301 35.035L82.3295 35.0277C82.319 34.9048 82.4109 34.7877 82.541 34.7766C83.1627 34.7232 83.8268 34.3166 84.2503 33.3117C84.5947 32.4884 84.7676 31.2792 84.6193 29.5515L84.6187 29.5443C84.5976 29.2985 84.6355 29.0622 84.7002 28.8819C84.7828 28.6564 84.9372 28.5047 85.1396 28.4873L91.3599 100.936L88.9816 101.14C88.9721 101.454 88.9554 101.768 88.9453 102.075L88.9472 102.097L88.9478 102.104C88.8799 103.603 88.7809 104.995 88.6619 106.323L88.6626 106.33L88.6638 106.345L88.6644 106.352C88.5372 107.754 88.3755 109.093 88.1914 110.427L88.192 110.434C88.1926 110.441 88.1867 110.457 88.1873 110.464C88.1078 110.98 88.0302 111.519 87.9454 112.057Z" fill="#EAB204"/>
</g>
<defs>
<filter id="filter0_d_63_1022" x="0" y="19.8012" width="178.159" height="136.571" filterUnits="userSpaceOnUse" color-interpolation-filters="sRGB">
<feFlood flood-opacity="0" result="BackgroundImageFix"/>
<feColorMatrix in="SourceAlpha" type="matrix" values="0 0 0 0 0 0 0 0 0 0 0 0 0 0 0 0 0 0 127 0" result="hardAlpha"/>
<feOffset dy="4"/>
<feGaussianBlur stdDeviation="10"/>
<feColorMatrix type="matrix" values="0 0 0 0 0.128906 0 0 0 0 0 0 0 0 0 0.4125 0 0 0 0.16 0"/>
<feBlend mode="normal" in2="BackgroundImageFix" result="effect1_dropShadow_63_1022"/>
<feBlend mode="normal" in="SourceGraphic" in2="effect1_dropShadow_63_1022" result="shape"/>
</filter>
<linearGradient id="paint0_linear_63_1022" x1="81.4961" y1="40.9811" x2="89.8983" y2="130.142" gradientUnits="userSpaceOnUse">
<stop stop-color="#FFD657"/>
<stop offset="1" stop-color="#FFC100"/>
</linearGradient>
</defs>
</svg>
