<svg width="103" height="74" viewBox="0 0 103 74" fill="none" xmlns="http://www.w3.org/2000/svg">
<path d="M39.3778 35.0443C51.1315 31.2366 63.4785 28.8386 75.4681 29.4746C83.5899 29.9119 91.4375 31.7294 98.4995 34.8362C88.5576 33.9025 82.7692 40.459 75.521 45.3557C68.2728 50.2523 61.5094 55.8202 53.7644 60.0052C46.0396 64.1842 36.9412 66.9201 28.6901 65.3761C21.3889 63.9914 15.677 59.4945 10.2738 55.1483L8.20995 52.7865C6.62121 50.9888 7.51379 48.1266 9.99739 46.9955C19.6078 42.5668 29.3127 38.3084 39.3778 35.0443Z" fill="#FFC100"/>
<path d="M69.356 35.5323C70.754 34.304 63.1807 21.5067 62.4547 20.4665C58.1267 14.1729 49.8997 10.5522 41.2253 13.9773C26.564 19.7902 29.636 34.1175 31.0623 44.5942C31.0421 44.6002 49.3459 53.0338 69.356 35.5323Z" fill="#FFC100"/>
<path d="M30.4044 39.989C34.2059 41.1541 50.6387 44.9012 67.2713 29.0815C68.8168 32.147 69.9688 34.9988 69.3358 35.5383C49.3257 53.0398 31.0421 44.6002 31.0421 44.6002C30.8455 43.1171 30.6107 41.5793 30.4044 39.989Z" fill="#D99800"/>
</svg>
