<svg width="52" height="176" viewBox="0 0 52 176" fill="none" xmlns="http://www.w3.org/2000/svg">
<path d="M38.8594 53.3255C34.9725 41.595 38.2913 28.7572 37.0954 16.4582C36.7665 13.0018 36.0339 9.48569 34.1502 6.56802C31.1453 1.89975 25.2402 -0.673776 19.7686 0.194043C14.2969 1.06186 9.49805 5.23637 7.76388 10.5181C6.56789 14.154 6.74729 18.0891 7.01639 21.9194C8.01802 36.1487 9.94654 50.6472 6.62769 64.5024C4.62442 72.8664 0.737476 80.8264 0.0946352 89.3848C-0.383758 95.8187 1.00657 102.267 3.02479 108.402C7.79378 122.886 18.9613 135.978 35.705 130.202C43.9424 127.359 46.0054 119.893 46.9024 112.038C47.8891 103.435 50.7296 95.5045 51.8358 87.1255C53.4504 74.9611 42.7165 64.9662 38.8594 53.3255Z" fill="#04A989"/>
<path d="M1.97822 104.946L28.6935 126.073C29.74 142.158 30.6669 158.721 31.3545 175.105C32.5505 175.18 33.7316 175.269 34.9126 175.374C34.21 158.901 33.2831 142.217 32.2366 126.043L48.1432 104.707C48.5468 102.792 48.9953 100.891 49.4438 98.9912L32.0123 122.407C31.3844 112.966 30.7267 103.719 30.0539 94.8017L48.7561 72.6723C48.3823 71.9092 47.9937 71.1462 47.59 70.3831L29.7998 91.4352C28.8131 78.5376 27.7965 66.3881 26.8397 55.4057L36.9458 41.2064C36.9009 39.8598 36.9009 38.5132 36.9308 37.1516L26.5258 51.7699C25.554 40.8024 24.6421 31.1218 23.8797 23.1767L35.8694 10.2193C35.6003 9.39638 35.2564 8.58841 34.8677 7.81037L23.5657 20.0197C22.3548 7.69067 21.5624 0.31421 21.5325 0L18.0044 0.389022C18.0343 0.703232 18.8565 8.22931 20.0824 20.7678L7.15084 13.137C7.01629 13.9898 6.9266 14.8577 6.88175 15.7255L20.3665 23.6705C21.1289 31.5856 22.0408 41.2363 22.9976 52.1589L8.45147 43.5854C8.48137 44.5131 8.48137 45.4258 8.49632 46.3535L23.2518 55.0616C24.2235 66.0889 25.2401 78.2982 26.2268 91.2706L3.90674 73.6299C3.63764 74.4229 3.3835 75.2309 3.12935 76.0239L26.466 94.4875C27.1537 103.659 27.8413 113.176 28.4842 122.901L1.05133 101.206C1.32043 102.462 1.63437 103.719 1.97822 104.946Z" fill="#03987B"/>
</svg>
