<svg width="48" height="114" viewBox="0 0 48 114" fill="none" xmlns="http://www.w3.org/2000/svg">
<path d="M29.7794 46.5233C29.1102 44.8083 28.6611 42.928 28.5222 40.7366C28.138 34.6448 29.8839 27.9857 28.0907 21.7628C25.985 14.4914 18.3162 9.1917 13.3531 4.75969C11.0003 2.65099 7.74216 3.05467 5.73711 4.98313C3.48266 7.15247 3.67621 10.6447 3.80421 13.9744C3.965 18.1922 3.25801 22.278 3.44631 26.5424C3.77975 34.3165 8.30773 38.977 11.0066 45.7829C12.63 49.8799 11.9375 53.4561 11.8531 57.5386C11.5743 69.8205 18.6715 80.4338 29.5045 79.1329C36.4445 78.2916 43.1156 71.8484 39.8947 62.6151C38.9405 59.8981 37.2684 57.5642 35.529 55.3927C33.1348 52.4073 31.0475 49.761 29.7794 46.5233Z" fill="#03A989"/>
<path d="M18.427 40.3726C19.1818 42.4501 20.1297 44.9245 21.2072 47.7141L10.2021 43.9159C10.4462 44.4472 10.6818 44.9898 10.909 45.544L21.8283 49.3146C22.079 49.9565 22.3328 50.6182 22.5995 51.2982C24.1419 55.2655 25.9016 59.7885 27.7209 64.6372L11.9121 60.28C11.943 60.7523 11.9824 61.2132 12.0417 61.671L28.287 66.1446C33.3242 79.6689 38.7316 95.5626 41.5197 109.611C42.1521 109.404 42.7759 109.207 43.4212 109.018C40.588 94.8746 35.1676 78.9626 30.132 65.4482L36.0613 56.073C35.8839 55.8462 35.7064 55.6195 35.519 55.3942C35.4066 55.2591 35.3041 55.1224 35.1916 54.9872L29.5499 63.9027C27.7305 59.0539 25.9739 54.5508 24.4315 50.5835C24.1793 49.9317 23.9315 49.3097 23.6938 48.6861L28.5739 41.4798C28.5477 41.2402 28.53 40.9892 28.5123 40.7381C28.4814 40.2658 28.4704 39.7905 28.458 39.3052L23.1108 47.2016C22.0028 44.3456 21.0373 41.8231 20.2665 39.7075C19.2138 36.8126 18.206 33.8094 17.2426 30.8299L26.6067 18.3144C26.3807 17.9022 26.1362 17.503 25.8717 17.1067L16.7734 29.2875C15.4093 24.9481 14.1602 20.6926 13.1062 16.915L18.7418 9.37063C18.411 9.07582 18.0817 8.79093 17.7425 8.50756L12.6479 15.3101C10.7386 8.32339 9.54066 3.32946 9.51259 3.21193L7.59301 3.68627C7.62107 3.80379 8.84708 8.91524 10.8219 16.0645L3.8012 13.9546L3.80271 13.9645C3.82061 14.4185 3.82854 14.874 3.82648 15.331L11.2322 17.5549C12.3007 21.3608 13.5444 25.6475 14.9229 30.0152L3.44933 26.5622C3.47025 27.0361 3.51114 27.5068 3.5605 27.9662L15.4191 31.5332C16.371 34.5043 17.3758 37.4876 18.427 40.3726Z" fill="#02987B"/>
</svg>
