<svg width="36" height="42" viewBox="0 0 36 42" fill="none" xmlns="http://www.w3.org/2000/svg">
<path d="M17.5793 41.5011C7.88778 41.5011 0 33.6133 0 23.9217V3.16876C0 1.41863 1.41863 0 3.16876 0C4.9189 0 6.33753 1.41863 6.33753 3.16876V23.9217C6.33753 30.1179 11.3783 35.1635 17.5793 35.1635C23.7803 35.1635 28.8211 30.1228 28.8211 23.9217C28.8211 17.7987 23.8973 12.8018 17.7987 12.6848L17.7938 13.0748C17.7646 14.8249 16.3167 16.2338 14.5763 16.1899C12.8262 16.1607 11.4319 14.7226 11.4612 12.9724L11.5148 9.75492C11.5392 8.26804 12.5922 7.00053 14.0498 6.70316C15.2101 6.46428 16.3996 6.34728 17.5891 6.34728C27.2806 6.34728 35.1684 14.2351 35.1684 23.9266C35.1586 33.6133 27.2709 41.5011 17.5793 41.5011Z" fill="white"/>
<path d="M22.4448 23.8291C23.6348 23.8291 24.5995 22.8644 24.5995 21.6743C24.5995 20.4843 23.6348 19.5196 22.4448 19.5196C21.2548 19.5196 20.29 20.4843 20.29 21.6743C20.29 22.8644 21.2548 23.8291 22.4448 23.8291Z" fill="white"/>
<path d="M12.5288 23.8291C13.7188 23.8291 14.6835 22.8644 14.6835 21.6743C14.6835 20.4843 13.7188 19.5196 12.5288 19.5196C11.3387 19.5196 10.374 20.4843 10.374 21.6743C10.374 22.8644 11.3387 23.8291 12.5288 23.8291Z" fill="white"/>
</svg>
