<svg width="110" height="46" viewBox="0 0 110 46" fill="none" xmlns="http://www.w3.org/2000/svg">
<g clip-path="url(#clip0_203_109)">
<path d="M92.4211 45.4791C82.7296 45.4791 74.8418 37.5913 74.8418 27.8998V7.14679C74.8418 5.39666 76.2604 3.97803 78.0106 3.97803C79.7607 3.97803 81.1793 5.39666 81.1793 7.14679V27.8998C81.1793 34.0959 86.2201 39.1416 92.4211 39.1416C98.6221 39.1416 103.663 34.1008 103.663 27.8998C103.663 21.7767 98.7391 16.7798 92.6405 16.6628L92.6356 17.0528C92.6064 18.803 91.1585 20.2119 89.4181 20.168C87.668 20.1387 86.2737 18.7006 86.303 16.9505L86.3566 13.7329C86.381 12.2461 87.434 10.9786 88.8916 10.6812C90.0519 10.4423 91.2414 10.3253 92.4309 10.3253C102.122 10.3253 110.01 18.2131 110.01 27.9046C110 37.5913 102.113 45.4791 92.4211 45.4791Z" fill="white"/>
<path d="M97.2866 27.8071C98.4766 27.8071 99.4413 26.8424 99.4413 25.6524C99.4413 24.4623 98.4766 23.4976 97.2866 23.4976C96.0966 23.4976 95.1318 24.4623 95.1318 25.6524C95.1318 26.8424 96.0966 27.8071 97.2866 27.8071Z" fill="white"/>
<path d="M87.3706 27.8071C88.5606 27.8071 89.5253 26.8424 89.5253 25.6524C89.5253 24.4623 88.5606 23.4976 87.3706 23.4976C86.1805 23.4976 85.2158 24.4623 85.2158 25.6524C85.2158 26.8424 86.1805 27.8071 87.3706 27.8071Z" fill="white"/>
<path d="M9.15042 0.438721H0.458252H0V0.896973V18.2423V18.7006H0.458252H2.19376H2.65201V18.2423V10.1888H9.15042H9.60867V9.73051V8.02913V7.57088H9.15042H2.65201V3.05173H9.15042H9.60867V2.59348V0.896973V0.438721H9.15042Z" fill="white"/>
<path d="M23.4055 13.5818L23.0203 13.3819L22.7961 13.7524C22.3183 14.5471 21.8796 15.1223 21.4847 15.4636C21.0947 15.7999 20.6121 16.0778 20.0515 16.2826C19.486 16.4922 18.9009 16.5946 18.3013 16.5946C17.0679 16.5946 16.0588 16.1704 15.2203 15.3027C14.4744 14.5276 14.0552 13.5818 13.9479 12.4167H25.0094H25.4725L25.4676 11.9536C25.453 10.1059 24.9411 8.53129 23.9515 7.28328C22.5621 5.51853 20.6755 4.62152 18.3501 4.62152C16.0881 4.62152 14.2551 5.49903 12.8998 7.22478C11.8419 8.57516 11.3057 10.1352 11.3057 11.8609C11.3057 13.6939 11.9394 15.3612 13.1874 16.814C14.4549 18.2862 16.2246 19.0321 18.4476 19.0321C19.4421 19.0321 20.3537 18.8761 21.1483 18.569C21.9478 18.2618 22.6742 17.8085 23.3128 17.2235C23.9466 16.6385 24.5121 15.8633 24.9947 14.9224L25.1995 14.5178L24.7997 14.3082L23.4055 13.5818ZM21.8698 8.70679C22.1526 9.06267 22.3915 9.52092 22.5767 10.0718H14.2599C14.5573 9.27229 14.9522 8.64829 15.4299 8.21929C16.2587 7.47828 17.2191 7.12241 18.3696 7.12241C19.0618 7.12241 19.7297 7.26866 20.3586 7.56116C20.9875 7.85366 21.4945 8.23879 21.8698 8.70679Z" fill="white"/>
<path d="M27.8362 0H27.3779V0.458252V18.2423V18.7006H27.8362H29.4888H29.9471V18.2423V0.458252V0H29.4888H27.8362Z" fill="white"/>
<path d="M34.3248 0H32.6721H32.2139V0.458252V18.2423V18.7006H32.6721H34.3248H34.783V18.2423V0.458252V0H34.3248Z" fill="white"/>
<path d="M43.8265 4.62152C41.7156 4.62152 39.9411 5.39665 38.5614 6.93228C37.3085 8.31679 36.6699 9.97917 36.6699 11.8609C36.6699 13.7671 37.3427 15.4538 38.6638 16.8725C39.9947 18.3057 41.7351 19.0272 43.8265 19.0272C45.913 19.0272 47.6436 18.3008 48.9794 16.8676C50.3054 15.4441 50.9732 13.7573 50.9732 11.8561C50.9732 9.96454 50.3395 8.29729 49.0817 6.91278C47.6972 5.39665 45.9325 4.62152 43.8265 4.62152ZM48.3797 11.8999C48.3797 12.7433 48.1701 13.5428 47.7655 14.2692C47.3608 14.9956 46.8051 15.5611 46.1177 15.9511C45.4255 16.3459 44.6552 16.5458 43.8265 16.5458C42.9977 16.5458 42.2226 16.3459 41.5352 15.9511C40.8478 15.5562 40.2921 14.9907 39.8874 14.2692C39.4779 13.5428 39.2732 12.7433 39.2732 11.8999C39.2732 10.5739 39.7168 9.47217 40.6236 8.54104C41.5303 7.60991 42.5785 7.15653 43.8313 7.15653C45.0793 7.15653 46.1275 7.60991 47.0342 8.54104C47.941 9.47217 48.3797 10.5739 48.3797 11.8999Z" fill="white"/>
<path d="M71.7064 4.953H69.9904H69.6881L69.5711 5.23088L65.9782 13.5818L62.283 5.226L62.1611 4.953H61.8588H61.5615H61.2641L61.1422 5.226L57.4762 13.5672L53.9564 5.23575L53.8394 4.953H53.5323H51.8358H51.1387L51.4117 5.59163L56.8961 18.4227L57.0131 18.7006H57.3153H57.6225H57.9198L58.0417 18.4324L61.7272 10.1839L65.4079 18.4324L65.5297 18.7006H65.8271H66.1342H66.4365L66.5535 18.4276L72.1305 5.59651L72.4084 4.953H71.7064Z" fill="white"/>
<path d="M51.4216 36.9868V22.4836V22.0594H50.9975H50.5636H50.3442L50.2126 22.2349L38.2737 39.2098L37.8008 39.8825H38.6198H48.4381V44.4358V44.8599H48.8622H50.9877H51.4118V44.4358V39.8777H53.5764H54.0005V39.4535V37.4158V36.9916H53.5764H51.4216V36.9868ZM43.3486 36.9868L48.443 29.762V36.9868H43.3486Z" fill="white"/>
<path d="M71.2384 22.5957H69.0982H68.6741V23.0198V35.9435C68.6741 37.991 68.562 38.8344 68.4694 39.1805C68.2841 39.8777 67.9867 40.4724 67.5919 40.955C67.197 41.4377 66.6997 41.8179 66.1147 42.0909C65.5249 42.3639 64.9009 42.5004 64.2574 42.5004C63.5066 42.5004 62.751 42.32 62.01 41.969C61.2787 41.618 60.7327 41.189 60.3866 40.6869C60.0405 40.1799 59.8113 39.5267 59.7138 38.7564C59.6748 38.5029 59.631 37.8155 59.631 35.9435V23.0198V22.5957H59.2068H57.0667H56.6426V23.0198V35.9435C56.6426 38.1812 56.7791 39.6973 57.057 40.5845C57.5006 42.0324 58.3927 43.2073 59.6992 44.0848C60.996 44.9526 62.5706 45.3962 64.3744 45.3962C66.0562 45.3962 67.509 44.9233 68.7034 43.997C69.888 43.0757 70.6924 41.969 71.0873 40.7113C71.4724 39.4974 71.6674 37.8935 71.6674 35.9484V23.0198V22.5957H71.2384Z" fill="white"/>
</g>
<defs>
<clipPath id="clip0_203_109">
<rect width="110" height="45.4791" fill="white"/>
</clipPath>
</defs>
</svg>
