<svg width="63" height="52" viewBox="0 0 63 52" fill="none" xmlns="http://www.w3.org/2000/svg">
<path d="M62.4012 2.43996C67.0464 13.7979 16.6601 49.0393 12.456 50.7587C10.099 51.7227 7.20641 52.2809 6.32974 50.1374C6.03708 49.4218 6.45121 48.044 7.41152 46.1949L7.41087 46.1964L0.720371 40.9608C-0.185391 40.2517 -0.246845 38.9094 0.591738 38.1068L1.15384 37.5689C2.1716 36.5929 3.56717 36.106 4.96891 36.2365L13.5541 37.0368C15.6492 34.299 18.084 31.3334 20.6984 28.3256L3.30249 25.1429C1.92587 24.8907 1.2924 23.3077 2.11411 22.1752L2.95644 21.0155C4.35821 19.0847 6.49875 17.8085 8.87036 17.4885L34.2453 14.0756C40.2512 8.35207 45.9351 3.79712 49.7617 2.23209C50.7842 1.81392 51.8187 1.42212 52.8349 1.08792L47.1693 7.00409L47.9438 9.36968L56.6526 0.150129C59.4614 -0.296117 61.4815 0.191337 62.4012 2.43996ZM42.5191 33.458L54.994 39.5437C55.7541 39.9153 56.6751 39.7427 57.257 39.1228L58.1874 38.1287C59.8851 36.3161 60.2272 33.6415 59.0365 31.4938L54.271 22.8999C53.9761 22.3681 53.2559 22.2494 52.7954 22.6569L42.315 31.8972C41.8058 32.3472 41.9116 33.1617 42.5191 33.458Z" fill="#05BD99"/>
</svg>
