<svg width="126" height="204" viewBox="0 0 126 204" fill="none" xmlns="http://www.w3.org/2000/svg">
<path d="M0.291137 122.875C0.902026 119.847 2.45294 117.475 5.6289 116.79C10.9498 115.572 16.5 123.138 18.9314 127.03C22.2804 132.396 24.0815 138.704 24.2335 145.037C24.2696 147.515 24.3097 151.39 25.6659 153.526C28.4947 157.928 31.4358 151.145 32.3488 148.214C35.0123 139.441 31.7535 130.261 28.7746 121.997C23.9028 108.589 4.73256 94.8386 20.3315 80.9414C22.3829 79.0994 24.9835 77.5472 27.7455 77.6748C37.2751 78.0936 41.2441 92.7877 42.5414 100.175C43.0031 102.846 42.8314 106.178 44.2763 108.582C46.9539 113.025 50.4598 108.934 51.8068 105.446C53.1265 101.917 53.2446 97.9661 52.991 94.2625C52.4438 86.3461 50.4531 78.6755 48.7511 70.9915C47.2463 64.2783 44.9666 56.8001 49.7202 50.7767C52.1107 47.7856 56.2095 46.0703 59.8896 47.4931C62.8076 48.6189 65.0011 51.21 66.2802 54.082C67.7028 57.3052 68.307 60.8647 68.4166 64.3959C68.4677 66.2683 67.193 71.3464 68.9905 72.7117C69.7588 73.3322 70.9962 73.0447 71.7397 72.3712C77.5155 67.1269 75.9136 57.5295 74.5187 50.8027C73.2328 44.5992 71.7821 38.3266 71.7814 31.9527C71.7844 27.1551 73.0723 15.6342 79.9569 15.8774C83.3305 15.9851 85.4253 19.7737 85.7826 23.1401C86.1399 26.5065 86.4913 29.3704 87.6735 32.5452C87.0039 30.7271 91.6826 24.3663 92.6683 22.8464C94.8878 19.4628 97.4916 16.2999 100.383 13.4816C106.291 7.76262 113.363 3.35296 121.188 0.885378C124.585 -0.183899 127.829 -0.675185 130.813 1.71727C133.468 3.79266 135.213 7.36738 136.23 10.4731C137.07 13.0417 137.312 15.9192 136.434 18.4992C133.593 26.5558 122.368 28.6953 116.215 33.3264C111.962 36.5146 109.169 41.5013 109.021 46.8425C109.073 44.812 119.502 42.1896 121.165 42.0954C124.67 41.9073 128.687 43.0759 130.756 46.1073C132.216 48.2637 132.505 51.0794 131.82 53.5908C129.583 62.1988 120.274 64.5818 112.869 66.9192C104.817 69.4484 96.9909 72.8108 89.6164 76.9447C90.6992 78.3091 92.8307 77.6649 94.44 76.9511C99.1099 74.8855 103.944 73.2468 108.921 72.1383C112.365 71.3651 116.269 70.7921 119.074 73.5422C121.124 75.603 121.818 78.8942 120.734 81.6116C119.297 85.189 115.39 87.3727 112.609 89.8194C109.525 92.5273 106.305 94.6706 102.604 96.538C94.8797 100.458 86.1541 103.317 80.1419 109.91C79.3155 110.817 78.5022 112.014 78.7952 113.219C79.2789 115.25 82.1648 115.295 84.1997 114.775C89.0329 113.494 93.8193 111.559 98.7942 111.525C103.803 111.497 109.295 114.037 110.722 118.837C111.895 122.762 109.949 127.096 106.92 129.886C103.898 132.642 99.916 134.131 96.0174 135.385C83.3175 139.519 69.3343 142.928 61.0328 153.428C73.5123 149.5 87.6581 147.234 99.1412 153.382C102.175 154.997 105.206 157.864 104.732 161.278C104.348 164.065 101.706 166.003 99.1199 167.128C89.5668 171.431 78.4106 170.04 68.2562 172.718C59.9511 174.909 52.5127 180.069 47.2147 186.842C43.7355 191.332 41.487 202.122 35.389 203.649C28.7617 205.319 25.3133 194.776 24.0105 190.073C21.8689 182.265 21.5358 173.819 18.0947 166.428C14.2294 158.129 7.99854 150.749 3.9685 142.38C2.10711 138.675 -0.958773 129.247 0.291137 122.875Z" fill="#00E3B7"/>
</svg>
